<?xml version="1.0" encoding="iso-8859-1"?>
<!-- Uploaded to: SVG Repo, www.svgrepo.com, Generator: SVG Repo Mixer Tools -->
<svg version="1.1" id="Layer_1" xmlns="http://www.w3.org/2000/svg" xmlns:xlink="http://www.w3.org/1999/xlink" 
	 viewBox="0 0 512 512" xml:space="preserve">
<path style="fill:#FFFFFF;" d="M465.094,33.75H88.823c-18.841,0-34.113,15.273-34.113,34.113v376.272
	c0,18.841,15.273,34.113,34.113,34.113h376.272c18.841,0,34.113-15.273,34.113-34.113V67.863
	C499.208,49.024,483.933,33.75,465.094,33.75z"/>
<path style="fill:#FF7876;" d="M318.26,360.249v-50.977c0-6.611,5.359-11.97,11.97-11.97h50.977c6.611,0,11.97-5.359,11.97-11.97
	v-58.663c0-6.611-5.359-11.97-11.97-11.97h-50.977c-6.611,0-11.97-5.359-11.97-11.97v-50.976c0-6.611-5.359-11.97-11.97-11.97
	h-58.663c-6.611,0-11.97,5.359-11.97,11.97v50.977c0,6.611-5.359,11.97-11.97,11.97h-50.977c-6.611,0-11.97,5.359-11.97,11.97
	v58.663c0,6.611,5.359,11.97,11.97,11.97h50.977c6.611,0,11.97,5.359,11.97,11.97v50.977c0,6.611,5.359,11.97,11.97,11.97h58.663
	C312.899,372.219,318.26,366.86,318.26,360.249z"/>
<g>
	<rect x="12.792" y="110.186" style="fill:#FFDA79;" width="41.917" height="93.078"/>
	<rect x="12.792" y="308.623" style="fill:#FFDA79;" width="41.917" height="93.078"/>
</g>
<g>
	<path style="fill:#58595B;" d="M465.094,20.959H88.823c-25.865,0-46.906,21.041-46.906,46.906v29.527H12.792
		C5.728,97.392,0,103.119,0,110.184v93.078c0,7.065,5.728,12.792,12.792,12.792h29.124v79.776H12.792
		C5.728,295.831,0,301.558,0,308.623v93.078c0,7.065,5.728,12.793,12.792,12.793h29.124v29.641
		c0,25.865,21.041,46.906,46.906,46.906h376.272C490.959,491.041,512,470,512,444.135V67.865C512,42,490.957,20.959,465.094,20.959z
		 M25.585,190.47v-67.493h16.332v67.493H25.585z M25.585,388.909v-67.493h16.332v67.493L25.585,388.909L25.585,388.909z
		 M486.415,444.135c0,11.757-9.564,21.321-21.321,21.321H88.823c-11.757,0-21.321-9.564-21.321-21.321c0-4.737,0-363.583,0-376.272
		c0-11.757,9.564-21.321,21.321-21.321h376.272c11.757,0,21.321,9.564,21.321,21.321V444.135z"/>
	<circle style="fill:#58595B;" cx="454.338" cy="256.003" r="15.114"/>
</g>
</svg>