<?xml version="1.0" encoding="iso-8859-1"?>
<!-- Uploaded to: SVG Repo, www.svgrepo.com, Generator: SVG Repo Mixer Tools -->
<svg version="1.1" id="Layer_1" xmlns="http://www.w3.org/2000/svg" xmlns:xlink="http://www.w3.org/1999/xlink" 
	 viewBox="0 0 512 512" xml:space="preserve">
<g>
	<path style="fill:#FAEDD6;" d="M390.044,495.861c-13.486,0-24.336-11.286-23.621-24.927c0.67-12.791,12.151-22.383,24.96-22.383
		h46.683c13.484,0,25.237-9.177,28.508-22.258l2.321-9.282h31.54l-15.769,39.425l14.988,39.425H390.044z"/>
	<path style="fill:#FAEDD6;" d="M121.956,495.861c13.486,0,24.336-11.286,23.621-24.927c-0.67-12.791-12.151-22.383-24.96-22.383
		H73.934c-13.484,0-25.237-9.177-28.508-22.258l-2.321-9.282H11.566l15.77,39.425l-14.988,39.425H121.956z"/>
</g>
<path style="fill:#FA004B;" d="M460.042,59.131c-55.934-55.934-146.619-55.934-202.552,0l-2.979,2.979
	c-55.934-55.934-146.619-55.934-202.552,0s-55.934,146.619,0,202.552L254.51,467.214l205.531-205.531
	C515.975,205.749,515.975,115.063,460.042,59.131z"/>
<g>
	<path style="fill:#36C9A3;" d="M145.611,377.586H78.588c-19.596,0-35.482,15.886-35.482,35.482l0,0
		c0,19.596,15.886,35.482,35.482,35.482h67.022v-70.964H145.611z"/>
	<path style="fill:#36C9A3;" d="M366.389,377.586h67.022c19.596,0,35.482,15.886,35.482,35.482l0,0
		c0,19.596-15.886,35.482-35.482,35.482h-67.022V377.586z"/>
</g>
<path style="fill:#FAEDD6;" d="M468.901,417.011c0-24.025-18.952-40.213-42.976-40.213H86.075
	c-24.025,0-42.475,16.189-42.475,40.213v-72.5c0-24.025,18.45-46.742,42.475-46.742h130.5h209.35
	c24.025,0,42.976,22.719,42.976,46.742v72.5H468.901z"/>
<g>
	<circle style="fill:#FFFFFF;" cx="256.002" cy="338.161" r="39.425"/>
	<path style="fill:#FFFFFF;" d="M460.922,156.349h-15.598c0-47.833-38.816-86.362-86.649-86.362V54.389
		C414.829,54.389,460.922,100.197,460.922,156.349z"/>
</g>
<rect x="319.162" y="330.008" style="fill:#FA004B;" width="14.558" height="15.598"/>
<rect x="344.119" y="330.008" style="fill:#232323;" width="15.598" height="15.598"/>
<rect x="368.035" y="330.008" style="fill:#FA004B;" width="15.598" height="15.598"/>
<rect x="390.912" y="330.008" style="fill:#232323;" width="14.558" height="15.598"/>
<g>
	<rect x="413.789" y="330.008" style="fill:#FA004B;" width="16.638" height="15.598"/>
	<rect x="177.742" y="330.008" style="fill:#FA004B;" width="16.638" height="15.598"/>
</g>
<rect x="153.826" y="330.008" style="fill:#232323;" width="14.558" height="15.598"/>
<rect x="130.949" y="330.008" style="fill:#FA004B;" width="14.558" height="15.598"/>
<rect x="107.032" y="330.008" style="fill:#232323;" width="15.598" height="15.598"/>
<rect x="83.115" y="330.008" style="fill:#FA004B;" width="15.598" height="15.598"/>
<rect x="444.985" y="171.951" style="fill:#FFFFFF;" width="15.598" height="16.638"/>
<path style="fill:#FA004B;" d="M267.726,329.459c-3.214-3.214-8.426-3.214-11.64,0l-0.172,0.172c-3.214-3.214-8.426-3.214-11.64,0
	c-3.214,3.214-3.214,8.426,0,11.64l11.64,11.64l11.811-11.811C270.94,337.885,270.94,332.674,267.726,329.459z"/>
<path style="fill:#232323;" d="M512,409.033h-34.78v-64.522c0-24.139-15.968-45.175-37.151-51.826l25.488-25.488
	c28.525-28.525,44.234-66.451,44.234-106.791s-15.709-78.266-44.234-106.791C437.032,25.09,399.106,9.38,358.766,9.38
	c-39.208,0-76.136,14.841-104.368,41.865c-59.211-53.479-150.91-51.695-207.954,5.35C17.919,85.12,2.21,123.045,2.21,163.385
	s15.709,78.267,44.234,106.791l23.309,23.309c-19.812,7.419-34.471,27.784-34.471,51.026v64.522H0l18.923,46.793L0,502.62h121.956
	c17.344,0,31.453-14.227,31.453-31.716c0-0.017-0.001-0.033-0.001-0.051h0.001l-0.798-77.577l-15.597,0.16l0.513,49.93
	c-4.595-2.653-9.909-4.177-15.572-4.177h-47.31c-13.427,0-23.575-9.364-23.758-21.837h0.017c0-18.717,14.462-32.235,35.17-32.235
	h75.308l93.127,93.127l93.127-93.127h78.286c20.951,0,35.599,13.434,35.693,32.058c-0.094,12.358-10.715,22.015-24.264,22.015
	h-47.31c-5.745,0-11.13,1.568-15.77,4.292v-50.045h-15.598c0,0-0.086,76.721-0.086,77.469c0,17.488,14.11,31.716,31.453,31.716
	h121.956l-18.923-46.793L512,409.033z M57.473,259.148c-52.803-52.803-52.803-138.721,0-191.523s138.72-52.803,191.523,0
	l5.514,5.514l8.493-8.492c25.579-25.579,59.588-39.666,95.762-39.666s70.183,14.087,95.761,39.666
	c52.803,52.803,52.803,138.72,0,191.523l-34.321,34.321H88.815L57.473,259.148z M287.627,338.161
	c0,16.064-12.04,29.358-27.569,31.357h-8.114c-15.528-1.999-27.569-15.293-27.569-31.357c0-17.438,14.188-31.626,31.626-31.626
	C273.439,306.536,287.627,320.723,287.627,338.161z M74.646,454.787h47.31c8.738,0,15.846,7.222,15.855,16.102v0.026
	c-0.005,8.882-7.116,16.107-15.856,16.107H23.133l12.617-31.196l-12.617-31.196h12.918C39.629,442.04,55.301,454.787,74.646,454.787
	z M86.075,369.519c-14.062,0-26.271,4.523-35.196,12.302v-20.005h0.025c0-8.79,7.356-16.214,16.064-16.214h7.677v-15.598h-7.677
	c-5.223,0-10.151,1.285-14.499,3.546c4.552-15.514,18.311-27.463,33.605-27.463h135.307c-6.057,6.533-10.286,14.776-11.886,23.917
	h-6.798v15.598h6.67c1.445,9.094,5.498,17.327,11.362,23.917H86.075z M254.51,456.184l-71.069-71.069h142.138L254.51,456.184z
	 M425.925,369.519H291.269c5.865-6.59,9.917-14.823,11.362-23.917h7.171v-15.598h-7.299c-1.599-9.14-5.828-17.383-11.886-23.917
	h135.306c15.659,0,29.725,12.179,34.207,27.906c-4.451-2.314-9.517-3.631-14.893-3.631h-7.885v15.598h7.885
	c8.88,0,16.383,7.261,16.383,15.857v20.477C452.268,374.164,439.605,369.519,425.925,369.519z M488.867,487.022h-98.824
	c-8.225,0-15.003-6.4-15.778-14.558h0.008v-3.231c0.826-8.105,7.583-14.447,15.77-14.447h47.31
	c19.592,0,35.463-12.747,39.087-30.156h12.426l-12.617,31.196L488.867,487.022z"/>
</svg>