<?xml version="1.0" encoding="utf-8"?>
<!-- Uploaded to: SVG Repo, www.svgrepo.com, Generator: SVG Repo Mixer Tools -->
<svg width="800px" height="800px" viewBox="-20.43 0 337.015 337.015" xmlns="http://www.w3.org/2000/svg"><defs><style>.a{fill:#957f6e;}.b{fill:#ffffff;}.c{fill:#211715;}.d{fill:#7a7473;}.e{fill:#b3b3b3;}</style></defs><path class="a" d="M136.708,90.6c-2.509-3.484-2.72-8.091-2.481-12.377s.821-8.687-.417-12.8a15.224,15.224,0,0,0-10.422-10.114l-3.667-1.03c.3-.526.538-1.03.746-1.483a11.507,11.507,0,0,0,.918-3.747l1.232-.458a114.543,114.543,0,0,0,1.489-13.043c0-1.361-.031-2.52-.062-3.27-.239-7.726-4.3-16.505-10.042-21.484l-.793-.688L108.678,7.17A30,30,0,0,0,88.527,2.161c-10.223.931-18.3,5.226-23.556,11.955a31.525,31.525,0,0,0-5.78,14.334,50.185,50.185,0,0,0,1.054,17.193l7.788,21.912Z"/><path class="b" d="M104.2,70.455a36.3,36.3,0,0,0,6.5-8.093s1.148-1.969,1.62-3.085l.09-.214a8.406,8.406,0,0,0,3.893-1.069,11.4,11.4,0,0,0,4.162-5.193c1-2.165,1.37-5.77.361-7.837a3.933,3.933,0,0,0-3.329-2.157,4.353,4.353,0,0,0-3.124.782l-6.581-4.623c-5.421-2.186-12.177-11.811-14.775-17.413C87.4,28.79,69.083,38.878,59.784,41.807c.833,4.8,1.389,9.664,2,14.093.949,6.835,3.218,12.976,8.135,16.77A21.959,21.959,0,0,0,85.6,77.555a30.372,30.372,0,0,0,4.293-.623,40.266,40.266,0,0,0,8.163-3.048s2.4-1.09,3.218-1.572C102.133,71.806,104.2,70.455,104.2,70.455Z"/><path class="b" d="M91.268,115.075c-4.92-13.374-5.987-25.22-6.61-37.471q.468-.015.942-.049a30.372,30.372,0,0,0,4.293-.623,40.266,40.266,0,0,0,8.163-3.048s2.4-1.09,3.218-1.572c.859-.506,2.927-1.857,2.927-1.857a34.538,34.538,0,0,0,2.561-2.635c1.133.353,2.105.658,2.105.658l1.336.452c-3.434,13.116-11.164,38.9-16.229,52.766Q92.455,118.318,91.268,115.075Z"/><path class="b" d="M201.981,335.083V299.454s0-.671,0-1.739c-2.26-.685-4.955-1.489-8-2.389v35.979Z"/><path class="b" d="M83.631,300.009c0-14.264.041-25.3.073-36.178L75.769,261.6c-.031,10.391-.065,23.068-.065,36.188Z"/><path class="b" d="M73.864,240.069c-.5-.141-.92-.258-1.243-.347,0,7.461-.016,14.209-.036,20.99l.036.01c10.1,2.808,112.505,31.649,133.39,38.234v-21C185.792,271.581,89.173,244.348,73.864,240.069Z"/><path class="c" d="M74.4,238.14l-1.243-.347a2.021,2.021,0,0,0-2.532,1.929q0,10.494-.036,20.99a2.038,2.038,0,0,0,1.468,1.928q7.541,2.106,15.074,4.233,14.27,4.02,28.532,8.062,17.092,4.842,34.174,9.718,15.956,4.557,31.894,9.173c7.374,2.142,14.753,4.275,22.091,6.54q.831.256,1.661.518a2.018,2.018,0,0,0,2.532-1.928v-21a2.05,2.05,0,0,0-1.469-1.929c-6.458-2.034-12.965-3.914-19.465-5.81q-14.88-4.342-29.788-8.593-16.576-4.745-33.163-9.447-14.817-4.2-29.642-8.386-9.42-2.658-18.845-5.3L74.4,238.14c-2.483-.694-3.543,3.164-1.063,3.857q8.576,2.4,17.146,4.821,14.3,4.032,28.6,8.086,16.551,4.694,33.093,9.418,15.358,4.391,30.7,8.837c7.016,2.04,14.037,4.073,21.018,6.23q.8.245,1.589.5l-1.468-1.928v21l2.531-1.929c-6.739-2.123-13.531-4.081-20.313-6.058q-15.6-4.545-31.224-9-17.155-4.908-34.325-9.772-14.759-4.183-29.523-8.347-8.586-2.419-17.176-4.828l-.865-.241,1.469,1.929q.032-10.5.036-20.99L72.09,241.65l1.243.347C75.816,242.691,76.876,238.833,74.4,238.14Z"/><path class="c" d="M77.7,297.787q0-18.007.073-36.014c.007-2.574-3.993-2.578-4,0q-.054,18.007-.073,36.014c0,2.574,4,2.578,4,0Z"/><path class="c" d="M85.631,300.009Q85.631,282,85.7,264c.007-2.574-3.993-2.578-4,0Q81.65,282,81.631,300.009c0,2.574,4,2.578,4,0Z"/><path class="b" d="M35.456,280.3C46.976,263.091,59,243.95,70.934,225.8l-1.783,1a32.6,32.6,0,0,1-10.337,3.515,7.645,7.645,0,0,1-6.033-1.612,7.169,7.169,0,0,1-1.927-6.121,16.246,16.246,0,0,1,2.159-6.273c6.919-11.837,9.9-17.182,17.322-26.758l39.713,31.311c-19.292,22.144-53.3,65.94-56.075,70.569,0,0-.539.9-1.272,2.122a51.842,51.842,0,0,1-17.781-13"/><path class="c" d="M58.814,228.317c-1.8.16-3.946.027-5.125-1.56A6.232,6.232,0,0,1,53,221.8a21.887,21.887,0,0,1,2.941-6.526q1.64-2.809,3.288-5.614a179.926,179.926,0,0,1,12.525-18.692,2.068,2.068,0,0,0,0-2.829,2.013,2.013,0,0,0-2.828,0,174.63,174.63,0,0,0-11.439,16.63c-1.979,3.281-3.9,6.6-5.829,9.906-2,3.424-3.579,7.588-2.523,11.587,1.166,4.416,5.366,6.439,9.684,6.056a2.054,2.054,0,0,0,2-2,2.014,2.014,0,0,0-2-2Z"/><path class="d" d="M53.7,293.976A22.879,22.879,0,0,1,49.6,310a9.9,9.9,0,0,1-4.646,3.1c-1.439.5-5.466-.182-9.029-2.195a149.2,149.2,0,0,1-16.2-10.613c-1.976-1.474-4.824-3.629-6.8-5.1-4.773-3.56-9.007-6.4-10.649-12.128a8.973,8.973,0,0,1,.15-4.763,6.469,6.469,0,0,1,2.273-3.02,11.4,11.4,0,0,1,4.257-1.6,13.484,13.484,0,0,1,5.658.209A93.975,93.975,0,0,1,34.92,280.55,51.739,51.739,0,0,0,53.7,293.976"/><path class="c" d="M51.7,293.976a21.366,21.366,0,0,1-1.635,11.195c-.945,2.071-2.031,4.127-4.065,5.274a4.675,4.675,0,0,1-3.891.641c-4.449-.872-8.392-3.7-12.146-6.1-3.95-2.535-7.74-5.29-11.491-8.109-3.258-2.449-6.725-4.75-9.742-7.5-2.595-2.362-5.151-5.741-4.662-9.462.634-4.828,7.094-4.731,10.619-3.977a96.772,96.772,0,0,1,13.754,4.03c1.2.45,2.389.922,3.561,1.436a9.546,9.546,0,0,1,1.621.748,7.189,7.189,0,0,1,.958,1.026,46.8,46.8,0,0,0,4.9,4.537A55.307,55.307,0,0,0,53.168,295.9a2.012,2.012,0,0,0,2.46-1.4,2.051,2.051,0,0,0-1.4-2.46,49.106,49.106,0,0,1-12.843-7.919,43.647,43.647,0,0,1-4.641-4.511,8.028,8.028,0,0,0-3.119-1.837c-1.226-.53-2.462-1.037-3.71-1.512a87.32,87.32,0,0,0-15.5-4.455c-5-.9-11.363.149-13.65,5.294-1.931,4.343.057,9.213,2.837,12.679s6.716,5.934,10.238,8.579c4.146,3.115,8.276,6.246,12.608,9.1,4.274,2.816,8.853,6.105,13.894,7.323a9.515,9.515,0,0,0,6.287-.219,12.13,12.13,0,0,0,5.964-5.58,25.087,25.087,0,0,0,3.1-15.014,2.059,2.059,0,0,0-2-2,2.013,2.013,0,0,0-2,2Z"/><path class="c" d="M108.634,219.45c-9.18,10.543-17.975,21.426-26.7,32.349-8.041,10.073-16.013,20.206-23.784,30.489a98.336,98.336,0,0,0-5.909,8.135c-1.336,2.209,2.122,4.221,3.454,2.019,1.425-2.356,3.2-4.537,4.854-6.735,3.2-4.26,6.452-8.481,9.721-12.687q13.224-17.013,26.862-33.7c4.7-5.739,9.452-11.447,14.325-17.044,1.684-1.934-1.134-4.774-2.828-2.828Z"/><path class="c" d="M87.867,197.4C73,218.19,59.447,239.884,45.543,261.318q-5.851,9.021-11.814,17.971c-1.435,2.145,2.028,4.15,3.454,2.018,14.311-21.384,27.855-43.271,42.206-64.629q5.852-8.708,11.932-17.257a2.018,2.018,0,0,0-.718-2.737,2.043,2.043,0,0,0-2.736.718Z"/><path class="c" d="M87.867,197.4C73,218.19,59.447,239.884,45.543,261.318q-5.851,9.021-11.814,17.971c-1.435,2.145,2.028,4.15,3.454,2.018,14.311-21.384,27.855-43.271,42.206-64.629q5.852-8.708,11.932-17.257a2.018,2.018,0,0,0-.718-2.737,2.043,2.043,0,0,0-2.736.718Z"/><path class="e" d="M65.741,183.817a35.474,35.474,0,0,1,3.955-4.839,16.614,16.614,0,0,0,9.727.49c4.788-1.071,9.574-3.569,12.5-7.508a51.206,51.206,0,0,0,5.678-9.43c2.642,5.666,5.908,9.513,10.017,14.041a26.532,26.532,0,0,0,18.083,8.5,15,15,0,0,0,7.122-1.268,55.7,55.7,0,0,0,10.545-6.366q.54-.438,1.055-.85c1.946,4.113-2.721,10.783-5.591,15.38-1.94,3.1-7.289,9.074-12.462,14.685l.74,2.857c1.139,5.487,2.1,9.975,4.579,15.015.764,1.552.389,3.853-1.155,4.635a54.279,54.279,0,0,1-9.383,4.025c-6.271,1.906-22.534,7.373-28.95,6.175a91.509,91.509,0,0,1-19.615-5.645,15.985,15.985,0,0,1-5.218-4.389L63.959,225.8c-4.87-3.531-8.759-6.392-12.526-12-1.5-2.236,6.708-17.283,9.131-21.305C63.092,188.291,64.317,185.939,65.741,183.817Z"/><path class="c" d="M70.062,175.741a48.251,48.251,0,0,0-7.6,9.566c-1.964,3.325-3.959,6.639-5.814,10.026-1.911,3.488-3.744,7.036-5.308,10.695-1.014,2.371-3.03,6.161-1.651,8.74a23.382,23.382,0,0,0,2.873,3.811,35.809,35.809,0,0,0,3.174,3.286,80.983,80.983,0,0,0,7.218,5.659,2.014,2.014,0,0,0,2.736-.718,2.045,2.045,0,0,0-.717-2.736c-4.031-2.924-7.968-5.964-10.928-10.026q-.475-.654-.922-1.329c.325.492.182.287.09.133.038.062.006.513.042.2.017-.14.089-.846,0-.289.046-.281.108-.558.176-.834A27.868,27.868,0,0,1,54.9,207.8c2.885-6.743,6.679-13.016,10.355-19.342a49.2,49.2,0,0,1,3.056-4.819,48.275,48.275,0,0,1,4.583-5.067c1.82-1.824-1.007-4.654-2.829-2.828Z"/><path class="c" d="M142.883,178.8c-.087,3.817-2.844,7.513-4.805,10.612a53.278,53.278,0,0,1-4.454,6.1c-4.273,5.09-8.845,9.928-13.37,14.793-1.941,2.087-3.9,4.159-5.775,6.309-1.684,1.933,1.134,4.773,2.828,2.828,3.987-4.576,8.242-8.921,12.335-13.4,4.051-4.435,8.268-8.883,11.49-13.977,2.508-3.966,5.64-8.392,5.751-13.263.059-2.575-3.941-2.574-4,0Z"/><path class="c" d="M125.18,210.037a80.168,80.168,0,0,0,2.726,10.625c.592,1.662,1.536,3.248,2.065,4.916.444,1.4-.377,1.817-1.474,2.369a94.352,94.352,0,0,1-15.715,5.714c-5.211,1.552-10.584,3.177-16.013,3.727a20.831,20.831,0,0,1-7.263-.6c-3.019-.637-6.018-1.379-8.962-2.3-4.273-1.342-8.706-2.527-11.45-6.17a2.064,2.064,0,0,0-2.737-.717,2.014,2.014,0,0,0-.717,2.736,15.956,15.956,0,0,0,6.835,5.464c1.675.634,3.335,1.306,5.029,1.892a84.214,84.214,0,0,0,8.28,2.364c3.064.72,6.23,1.588,9.4,1.454,5.952-.252,11.894-2,17.577-3.667,5.848-1.712,11.685-3.415,17.157-6.139,1.876-.934,3.461-1.852,3.982-4.042.53-2.233-.459-3.942-1.31-5.924a66.305,66.305,0,0,1-3.555-12.759c-.524-2.519-4.38-1.453-3.857,1.063Z"/><path class="c" d="M122.857,57.351a13.344,13.344,0,0,1,6.961,4.713,14.853,14.853,0,0,1,2.754,9.115c.074,6.895-1.833,14.418,2.409,20.541,1.456,2.1,4.925.105,3.454-2.018-4.371-6.309-1.155-14.7-2.094-21.753A17.348,17.348,0,0,0,123.92,53.494c-2.481-.7-3.54,3.156-1.063,3.857Z"/><path class="c" d="M120.883,66.117c.052.084.092.171.139.257.131.243-.179-.475-.11-.26.018.058.042.114.062.172a7.617,7.617,0,0,1,.213.773c.07.306.128.615.178.925.014.088.028.175.041.263.049.332-.006-.026-.019-.152.02.187.048.374.068.561a36.1,36.1,0,0,1,.215,4.411,2,2,0,0,0,4,0,35.578,35.578,0,0,0-.241-4.638,10.624,10.624,0,0,0-1.093-4.331,2,2,0,0,0-3.453,2.019Z"/><path class="c" d="M105.616,71.87a38.421,38.421,0,0,0,5.622-6.635,30.938,30.938,0,0,0,2.811-4.948,2.056,2.056,0,0,0-.718-2.737,2.022,2.022,0,0,0-2.736.718,30.664,30.664,0,0,1-2.708,4.8q-.514.771-1.065,1.518c-.111.151-.224.3-.337.45.169-.223-.018.024-.093.118q-.3.375-.6.741a35.307,35.307,0,0,1-3,3.151,2.017,2.017,0,0,0,0,2.829,2.044,2.044,0,0,0,2.829,0Z"/><path class="c" d="M112.588,12.213a29.388,29.388,0,0,1,9.2,17.24c.988,6.171-.223,12.51-1.1,18.611a2.068,2.068,0,0,0,1.4,2.461,2.015,2.015,0,0,0,2.46-1.4c.985-6.88,2.223-13.794,1.1-20.738A32.862,32.862,0,0,0,115.416,9.384c-1.924-1.7-4.764,1.123-2.828,2.829Z"/><path class="c" d="M79.184,67.006a13.439,13.439,0,0,0,4.419.418,9.786,9.786,0,0,0,2.328-.417,19.522,19.522,0,0,0,2.451-1.171A2.012,2.012,0,0,0,89.1,63.1a2.049,2.049,0,0,0-2.736-.718c-.331.165-.652.346-.978.52-.155.083-.313.159-.469.239-.349.177.462-.163-.049.009a6.6,6.6,0,0,1-.864.223q-.114.021-.228.039-.323.048.183-.023a4.218,4.218,0,0,0-.474.044,11.848,11.848,0,0,1-1.921-.032c-.16-.015-.691-.133-.047,0-.146-.031-.3-.045-.445-.071-.277-.051-.551-.112-.824-.184a2,2,0,0,0-1.063,3.857Z"/><path class="c" d="M87.894,49.44c-.418-1.389-.121-4.576,2.507-4.831,3.471.042,3.632,3.9,2.453,5.7C91.888,51.791,89.071,52.391,87.894,49.44Z"/><path class="c" d="M67.283,49.961c-.386-1.395-.121-4.591,2.285-4.841,3.179.05,3.335,3.919,2.259,5.727C70.946,52.328,68.368,52.924,67.283,49.961Z"/><path class="c" d="M77.555,52.539c-.433.776-.841,1.567-1.207,2.376a3.863,3.863,0,0,0-.45,1.605,2.443,2.443,0,0,0,.875,1.911,3.282,3.282,0,0,0,1.444.776c.344.067.681.079,1.024.119a1.993,1.993,0,0,0,1.414-.586,2,2,0,0,0,0-2.828L80.25,55.6a1.987,1.987,0,0,0-1.009-.273c-.136-.016-.273-.017-.409-.034l.532.072a1.43,1.43,0,0,1-.351-.1l.478.2a1.6,1.6,0,0,1-.294-.179l.4.313a1.683,1.683,0,0,1-.192-.176l.313.405a.4.4,0,0,1-.052-.083l.2.478a.717.717,0,0,1-.04-.139l.072.532a.919.919,0,0,1,0-.2l-.072.531a1.818,1.818,0,0,1,.112-.368l-.2.478c.371-.856.809-1.686,1.262-2.5a2.086,2.086,0,0,0,.2-1.541,2.037,2.037,0,0,0-.919-1.2,2.013,2.013,0,0,0-1.541-.2,2.051,2.051,0,0,0-1.195.919Z"/><path class="c" d="M109.688,5.443A33.016,33.016,0,0,0,93.011.024a39.51,39.51,0,0,0-16,2.8,32.656,32.656,0,0,0-12.345,8.55,31.842,31.842,0,0,0-7.247,15.573,48.128,48.128,0,0,0,.9,19.231c.607,2.5,4.465,1.441,3.857-1.064-2.369-9.757-2.06-21.395,4.288-29.675,5.72-7.462,15.1-11.121,24.3-11.415A29.168,29.168,0,0,1,107.669,8.9c2.174,1.392,4.182-2.069,2.019-3.454Z"/><path class="c" d="M115.385,45.316a2.63,2.63,0,0,1,2.557-.377c.24.089.281.1.121.03.117.055.231.116.342.182a3.515,3.515,0,0,1,.3.2c-.183-.139-.193-.138-.029.005.052.09.386.472.067.029.1.132.175.272.264.408.211.325,0-.139.117.252.061.2.122.4.169.6a6,6,0,0,1,.133,1.49,9.4,9.4,0,0,1-.476,3.052,10.319,10.319,0,0,1-3,4.61,5.564,5.564,0,0,1-1,.668c-.095.048-.192.093-.289.137q.312-.132-.029,0c-.262.082-.519.176-.785.247a4.837,4.837,0,0,1-1.264.21,3.339,3.339,0,0,1-1.242-.114,2.068,2.068,0,0,0-2.736.717,2.015,2.015,0,0,0,.717,2.737,9.041,9.041,0,0,0,7.433-.379,11.45,11.45,0,0,0,4.806-4.925,14.756,14.756,0,0,0,1.854-6.487,7.994,7.994,0,0,0-1.856-6.028,6.64,6.64,0,0,0-8.191-.718,2.054,2.054,0,0,0-.718,2.736,2.017,2.017,0,0,0,2.737.718Z"/><path class="c" d="M90.075,41.735a22.574,22.574,0,0,0,3.99-1.48,2,2,0,0,0-.478-3.655l-.532-.072a2.007,2.007,0,0,0-1.009.273c-.209.1-.421.2-.635.291l.477-.2a23.915,23.915,0,0,1-2.876.988,2.077,2.077,0,0,0-1.2.919,2.044,2.044,0,0,0-.2,1.541,2.022,2.022,0,0,0,.919,1.2,2.076,2.076,0,0,0,1.541.2Z"/><path class="c" d="M91.293,22.562a52.772,52.772,0,0,0,6.72,10.492c2.518,3.145,5.467,6.268,9.25,7.841a2.012,2.012,0,0,0,2.46-1.4,2.051,2.051,0,0,0-1.4-2.46c.4.166-.083-.048-.166-.089-.194-.1-.384-.2-.572-.309-.341-.2-.671-.409-.994-.634a16.447,16.447,0,0,1-1.869-1.541,39.249,39.249,0,0,1-4.042-4.438,48.757,48.757,0,0,1-5.937-9.483,2.016,2.016,0,0,0-2.736-.718,2.044,2.044,0,0,0-.717,2.736Z"/><path class="c" d="M91.605,20.139c-3.85,4.884-9.635,8.375-14.919,11.479a86.637,86.637,0,0,1-17.556,8.3c-2.447.77-1.4,4.633,1.063,3.857a83.427,83.427,0,0,0,14.038-6.2,100.224,100.224,0,0,0,14.715-9.4,31.965,31.965,0,0,0,5.488-5.214,2.063,2.063,0,0,0,0-2.828,2.014,2.014,0,0,0-2.829,0Z"/><path class="c" d="M121.78,49.754c.241.275-.252-.386-.066-.095.055.086.112.168.164.256s.095.181.143.272c.181.334-.152-.46-.04-.093.062.2.13.4.174.612.019.085.055.412.02.051-.037-.383,0,.028,0,.107.014.216,0,.426,0,.641-.007.338-.007-.049.031-.165-.032.1-.036.208-.059.308s-.051.2-.082.3c-.069.215-.2.289.057-.1a3.068,3.068,0,0,0-.3.514c.058-.151.313-.363.063-.106a2.407,2.407,0,0,0-.216.2c.086-.114.362-.276.086-.075-.1.071-.193.14-.29.21q-.567.4-1.152.782c-.961.621-1.956,1.184-2.963,1.727a2.017,2.017,0,0,0-.717,2.736,2.042,2.042,0,0,0,2.736.717c1.115-.6,2.216-1.228,3.272-1.929a8.152,8.152,0,0,0,2.8-2.488,6.4,6.4,0,0,0-.835-7.2,2.011,2.011,0,0,0-2.828,0,2.048,2.048,0,0,0,0,2.828Z"/><path class="e" d="M14.861,91.4c7.875-1.579,17.346-3.924,24.444-5.332-.351,6.437-.536,11.6-.6,17.2,5.22-4,10.012-9.422,14.616-13.847,2.673-2.567,5.633-5.224,6.711-6.012,5.1-3.733,9.2-5.528,14.032-8.094A21.291,21.291,0,0,0,84.657,77.6c.725,14.235,2.048,27.922,9.317,44.092,5.065-13.87,12.8-39.652,16.228-52.767l9.675,3.267c8.365,1.125,20.086,2.909,26.076,4.249,16.2,4.34,21.11,5.27,34.3,11.27,7.873,3.563,29.852,19.845,35.893,24.637-3.5,4.381-12.481,15.75-16.77,19.28-7.452-5.789-20.452-16.12-26.635-19.673-6-2.9-21.9-5.742-28.877-6.892-1.538,7.845-3.654,22.655-4.6,31.742A73.528,73.528,0,0,0,154.6,156.015c1.908,1.651,4.1,3.621,3.9,6.135a8.2,8.2,0,0,1-3,5.116c-4.473,4.167-7.532,6.439-12.139,10.167a55.7,55.7,0,0,1-10.545,6.366,15,15,0,0,1-7.122,1.268,26.532,26.532,0,0,1-18.083-8.5c-4.109-4.528-7.375-8.375-10.017-14.041a51.206,51.206,0,0,1-5.678,9.43c-2.925,3.939-7.711,6.437-12.5,7.508-5.929,1.326-9.137-.151-14.76-2.452a10.145,10.145,0,0,1-3.335-1.908,3.339,3.339,0,0,1-1.2-3.323,55.716,55.716,0,0,1,3.042-13.025q3.966-12.316,7.929-24.633-2.712-8.2-4.857-16.569l-.774.645c-4.161,3.461-9.334,7.367-13.962,10.575-3.065,2.116-5.986,3.99-8.353,5.281-3.979,2.18-8.823,5.22-13.285,6.034-4.482.814-11.062-.613-13.5-4.441-2.636-4.3-2.167-9.864-2.447-14.76A285.733,285.733,0,0,1,14.86,91.4"/><path class="b" d="M38.053,56.263a3.044,3.044,0,0,0-1.777.8,2.693,2.693,0,0,0-1.156-.684c-2.733-.881-4.79,1.095-5.373,3.417a4.214,4.214,0,0,0-2.018-1.2c-2.219-.6-6.367.293-6.925,3.487a7.073,7.073,0,0,0-1.988-.411c-4.266-.5-5.828,4.089-6.22,7.237a19.8,19.8,0,0,0,.667,8.5,31.2,31.2,0,0,0,2.3,5.5c.636,1.164,1.487,2.213,2.108,3.384a7.134,7.134,0,0,1,1.135,4.283c5.8-1.248,12.069-2.736,17.44-3.879A8.371,8.371,0,0,1,37.525,82.9c1.023-1.728,3.333-5.087,4.015-6.975.75-2.075,1.7-3.367,2.4-5.536a11.391,11.391,0,0,0,.315-5.661,4.385,4.385,0,0,0-1.7-3.048l-.082-.26a15.872,15.872,0,0,0-1.742-3.439,5.662,5.662,0,0,0-1.141-1.324,1.9,1.9,0,0,0-1.271-.409A2.322,2.322,0,0,0,38.053,56.263Z"/><path class="c" d="M38.237,86.665c.568-3.224,3.17-5.836,4.59-8.723.767-1.56,1.441-3.195,2.154-4.784a15.055,15.055,0,0,0,1.486-6.091c.023-3.411-1.129-6.817-4.647-7.91-3.092-.962-7.955-.98-10.3,1.587a5.505,5.505,0,0,0-.875,5.985c.837,1.731,2.741,2.3,4.218,3.343,2.109,1.485,4.11-1.982,2.019-3.454-.875-.617-2.787-1.083-2.76-2.259.036-1.51,1.88-1.631,3.011-1.683a7.961,7.961,0,0,1,4.1.537c1.075.619,1.174,2.191,1.221,3.307a11.318,11.318,0,0,1-1.339,5.493c-.715,1.475-1.264,3.032-2.035,4.474-1.591,2.979-4.1,5.71-4.7,9.115a2.056,2.056,0,0,0,1.4,2.46,2.016,2.016,0,0,0,2.46-1.4Z"/><path class="c" d="M20.807,90.131c-.1-4.123-3.2-7.116-4.726-10.759A19.078,19.078,0,0,1,14.774,68a7.536,7.536,0,0,1,1.574-3.533,3.324,3.324,0,0,1,3.663-.545,9.175,9.175,0,0,1,2.153,1.164,9.042,9.042,0,0,1,2.1,1.593c.361.449.606,1.073-.088,1.352-.369.148-.127.1-.524-.084-.453-.213-.88-.531-1.317-.778-2.244-1.268-4.262,2.186-2.019,3.454A10.61,10.61,0,0,0,23.03,72.01a4.577,4.577,0,0,0,3.161-.527,4.658,4.658,0,0,0,2.155-5.643c-.686-1.948-2.522-3.116-4.163-4.209a10.789,10.789,0,0,0-5.859-2c-3.736-.063-6.1,2.922-7.118,6.21a21.535,21.535,0,0,0,.17,12.237,28.49,28.49,0,0,0,2.57,6.028c1.1,1.929,2.8,3.694,2.861,6.022.065,2.569,4.066,2.579,4,0Z"/><path class="c" d="M22.836,62.117c.069-.139.146-.269.223-.4a1.682,1.682,0,0,1,.109-.162c.034.014-.286.292-.113.15.113-.093.2-.227.31-.328a1.8,1.8,0,0,0,.144-.13c.157-.182-.3.2-.1.071.242-.152.47-.313.726-.443a2.137,2.137,0,0,1,.238-.114c.013.011-.389.141-.172.074.168-.053.331-.122.5-.173.275-.083.553-.138.833-.2.371-.081-.393.03-.018,0,.168-.014.336-.03.5-.037.263-.009.524,0,.786.016a1.033,1.033,0,0,0,.174.016c.015,0-.459-.079-.254-.034.14.031.281.051.419.087.11.028.218.06.325.1.387.13-.044.033-.045-.03a4.057,4.057,0,0,0,.416.219c.062.037.122.076.183.115.2.122.06.07-.039-.036.13.14.276.271.409.408.153.156-.023-.023-.043-.054.049.077.1.151.152.226.229.347.451.7.653,1.062q.114.206.218.414c.036.072.263.563.161.329s.08.214.106.286c.079.216.151.435.218.655.048.16.095.321.134.483.024.1.039.2.064.3.061.243-.024-.144-.015-.137.058.044.016.4.02.479.019.343-.031-.086.03-.064a2.938,2.938,0,0,1-.069.3c-.028-.008.2-.33.06-.138-.159.226.337-.353,0,.012-.035.037-.229.179-.033.042.211-.148-.087.029-.124.055-.167.123.08-.034.121-.044-.027.006-.478.169-.181.073.219-.071.056,0-.033,0s-.181-.008-.271-.009c-.358-.006.073-.017.108.021-.035-.038-.258-.041-.312-.05-.221-.039-.44-.084-.658-.133q-.616-.136-1.222-.316a2,2,0,0,0-1.063,3.858c2.156.633,4.553,1.107,6.384-.56s1.333-4.383.49-6.412c-.8-1.929-1.965-4-3.962-4.883a8.222,8.222,0,0,0-5.054-.429,7.006,7.006,0,0,0-4.9,3.457,2,2,0,0,0,3.454,2.019Z"/><path class="c" d="M32.1,59.289c.055-.09.111-.179.171-.265.095-.14.319-.331-.063.07.142-.15.27-.311.422-.454a1.1,1.1,0,0,1,.231-.2l-.243.188c.055-.041.11-.079.167-.117a5.433,5.433,0,0,1,.488-.274c.183-.095-.505.187-.1.048.1-.033.2-.062.3-.087a2.192,2.192,0,0,0,.256-.053q-.535.064-.214.031l.108-.007c.11-.005.22-.006.33,0,.174.006.475.1-.076-.029.239.055.478.093.712.169l.121.041q.306.117-.152-.066a1.16,1.16,0,0,0,.278.155c.283.15-.276-.27-.13-.111.061.068.137.125.2.191s.279.338.049.04-.043-.051.005.019c.108.157.208.32.31.481s.217.336.312.512c.045.084.085.17.128.255.164.324-.169-.48-.057-.127.14.44.263.878.368,1.328a2.016,2.016,0,0,0,2.46,1.4,2.044,2.044,0,0,0,1.4-2.46,9.7,9.7,0,0,0-1.258-3.089,6.164,6.164,0,0,0-1.051-1.345,5.293,5.293,0,0,0-2.038-1.116,5.959,5.959,0,0,0-4.232.349,6.415,6.415,0,0,0-2.654,2.511A2,2,0,1,0,32.1,59.289Z"/><path class="c" d="M37.711,58.454c.076-.069.151-.133.232-.2l-.405.313a3.234,3.234,0,0,1,.567-.329l-.478.2a3.555,3.555,0,0,1,.882-.244l-.531.072a3.006,3.006,0,0,1,.7,0L38.15,58.2a1.892,1.892,0,0,1,.444.119l-.478-.2a3.083,3.083,0,0,1,.524.312l-.405-.313a4.363,4.363,0,0,1,.7.748l-.312-.405a15.438,15.438,0,0,1,1.862,3.282l-.2-.478c.094.227.184.455.262.688A2,2,0,0,0,44.4,60.889a16.926,16.926,0,0,0-1.214-2.716,12.6,12.6,0,0,0-1.8-2.586,4.146,4.146,0,0,0-3.19-1.335,5.212,5.212,0,0,0-3.31,1.373,2.015,2.015,0,0,0,0,2.829,2.044,2.044,0,0,0,2.828,0Z"/><path class="c" d="M199.981,299.454v35.629c0,2.574,4,2.578,4,0V299.454c0-2.574-4-2.578-4,0Z"/><path class="c" d="M191.981,295.676v35.629c0,2.574,4,2.578,4,0V295.676c0-2.574-4-2.578-4,0Z"/><path class="a" d="M294.04,150.929c-.3-2.906-1.387-4.205-3.521-6.089-9.269-8.184-17.171-13.713-26.707-21.2a7.336,7.336,0,0,0-10.07.442c-1.757,1.72-3.73,3.714-5.851,5.907a97.377,97.377,0,0,0-9.869-8.074,8.2,8.2,0,0,0-3.809-1.345,8.63,8.63,0,0,0-4.388.844,66.5,66.5,0,0,0-20.239,19.6c-1.727,2.51-1.718,4.627-1.723,7.674,0,2.738,1.476,4.943,3.369,6.92,1.759,1.835,4.84,4.872,7.137,7.014q-1.158,1.353-2.258,2.667c-3.223,3.838-3.992,4.663-5.355,8.058a8.151,8.151,0,0,0-.054,5.842A11.643,11.643,0,0,0,213.334,183c5.9,5.7,16.463,14.74,23.459,21.073,2.6,2.357,5.016,3.878,8.515,4.183,2.481.216,5.59-1.438,8.188-4.019,11.082-11.012,27-29.671,38.683-45.641l.029-.04A11.152,11.152,0,0,0,294.04,150.929Zm-70.521,5.722c-1.463-1.36-4.672-4.378-5.548-5.294a4.685,4.685,0,0,1-1.53-3.446c0-.345,0-.642,0-.909a3.283,3.283,0,0,1,.894-2.461c2.949-3.6,10.975-12.51,15.381-15.5a2.335,2.335,0,0,1,1.658-.407,3.385,3.385,0,0,1,1.764.559c1.793,1.321,4.063,3.491,6.075,5.351l.733.637C236.742,141.769,229.827,149.408,223.519,156.651Z"/><path class="c" d="M257.2,138.437a2.251,2.251,0,0,0-.5-2.724c-2.588-2.318-5.688-4.962-7.8-6.77-2.3,2.358-4.789,4.976-7.385,7.753l.826.673c1.834,1.391,5.272,4.188,7.835,6.2a2.245,2.245,0,0,0,3.11-.327c1.248-1.493,2.578-3.075,3.679-4.454A2.212,2.212,0,0,0,257.2,138.437Z"/><path class="c" d="M232.811,164.435a2.254,2.254,0,0,0-.725-1.584c-2.605-2.413-5.74-5.175-7.828-7.025-2.444,2.766-4.8,5.491-6.991,8.087.266.212.436.357.436.357,1.81,1.421,5.2,4.275,7.732,6.326a2.245,2.245,0,0,0,3.115-.276c1.272-1.472,2.628-3.032,3.752-4.392A2.223,2.223,0,0,0,232.811,164.435Z"/><path class="c" d="M214.748,181.58a7.923,7.923,0,0,1-2.355-3.821,6.66,6.66,0,0,1,.472-4.324c1.238-2.911,3.359-5.195,5.376-7.586q7.821-9.276,15.984-18.257c5.239-5.8,10.548-11.534,16-17.134q1.678-1.725,3.382-3.426c1.143-1.141,2.251-2.478,3.846-2.964a5.378,5.378,0,0,1,4.642.781c1.836,1.24,3.538,2.725,5.295,4.074,7.031,5.4,14.126,10.7,20.807,16.532,1.2,1.044,2.684,2.124,3.362,3.611a8.75,8.75,0,0,1,.344,5.23,13.131,13.131,0,0,1-2.739,5.038q-1.857,2.5-3.756,4.976a395.952,395.952,0,0,1-31.952,37.13c-2.305,2.336-5.182,5.326-8.784,4.729-3.65-.605-6.184-3.28-8.824-5.636-5.838-5.212-11.77-10.321-17.537-15.612q-1.8-1.651-3.561-3.341c-1.854-1.787-4.686,1.038-2.829,2.829,5.895,5.681,12.132,11.007,18.261,16.431,2.927,2.591,5.776,5.734,9.212,7.647a11.426,11.426,0,0,0,11.823.064c3.356-2,6.021-5.215,8.683-8.029q4.342-4.591,8.511-9.341,9.138-10.364,17.661-21.252c2.763-3.53,5.781-7.049,8.183-10.839,2.19-3.457,2.634-8.717.594-12.343a17.288,17.288,0,0,0-4-4.278q-2.87-2.5-5.824-4.9c-3.677-2.989-7.441-5.87-11.21-8.743-1.89-1.441-3.781-2.879-5.663-4.331-1.7-1.312-3.358-2.94-5.331-3.83a9.45,9.45,0,0,0-6.426-.458,11.979,11.979,0,0,0-4.979,3.363c-5.583,5.529-10.953,11.274-16.26,17.066q-8.924,9.738-17.52,19.769c-4.5,5.275-11.609,11.876-8.758,19.593a12.734,12.734,0,0,0,3.048,4.407C213.747,186.226,216.576,183.4,214.748,181.58Z"/><path class="c" d="M220.167,161.561c-1.664-1.542-3.294-3.121-4.9-4.719a28.589,28.589,0,0,1-4.309-4.748c-1.23-1.96-1.244-4.18-1.007-6.428.231-2.2,1.461-3.832,2.729-5.569a67.422,67.422,0,0,1,9.62-10.634,58.606,58.606,0,0,1,5.945-4.645c1.822-1.241,3.426-2.386,5.719-2.26,2.383.13,4.264,1.95,6.059,3.333,2.189,1.686,4.272,3.5,6.3,5.371,1.891,1.741,4.727-1.081,2.828-2.829-2.071-1.906-4.2-3.741-6.425-5.465-2-1.553-3.979-3.325-6.461-4.04-5.667-1.634-10.459,2.486-14.57,5.815A69.32,69.32,0,0,0,210.4,136.5c-1.624,2.116-3.454,4.312-4.114,6.953a16.4,16.4,0,0,0-.1,7.722c.79,2.912,2.883,5.112,4.946,7.2q3.037,3.072,6.2,6.016c1.886,1.748,4.722-1.074,2.828-2.828Z"/><path class="c" d="M225.3,155.574c-1.874-1.734-3.755-3.469-5.56-5.274a3.856,3.856,0,0,1-1.3-3.408c.058-.873.8-1.54,1.385-2.223a103.41,103.41,0,0,1,12.605-12.927,7.092,7.092,0,0,1,1.294-.977c.725-.345,1.3.06,1.88.524,1.814,1.456,3.488,3.087,5.193,4.666,1.887,1.746,4.723-1.076,2.829-2.829-1.754-1.622-3.476-3.294-5.344-4.786-1.693-1.352-3.846-2.312-5.992-1.332a17.132,17.132,0,0,0-3.907,2.95c-1.327,1.177-2.6,2.415-3.847,3.676q-3.738,3.777-7.2,7.815c-1,1.159-2.251,2.368-2.687,3.868a8.116,8.116,0,0,0,.539,5.624,16.381,16.381,0,0,0,3.431,3.84q1.912,1.824,3.852,3.621c1.888,1.746,4.723-1.076,2.829-2.828Z"/><path class="c" d="M241.338,139.1c.067.051.575.442.247.188q.258.2.514.4.615.481,1.226.968,1.421,1.128,2.837,2.262c1.951,1.556,4.1,3.914,6.847,2.869a7.979,7.979,0,0,0,3.077-2.78c.879-1.054,1.814-2.092,2.613-3.208a4.2,4.2,0,0,0,.416-4.033,8.638,8.638,0,0,0-2.614-2.9c-2.091-1.839-4.209-3.648-6.324-5.46a2.052,2.052,0,0,0-2.828,0,2.018,2.018,0,0,0,0,2.829q2.329,2,4.654,4,1.274,1.105,2.538,2.224c.189.168.378.334.565.5a3.256,3.256,0,0,1,.334.311c-.029-.035-.129-.186-.013,0s.021,0,0-.026c.012.017.069.327.04.118s0,.106-.01.124c.108-.211.029-.032-.031.049.136-.184-.086.1-.1.116-.149.2-.316.391-.474.584q-.538.66-1.082,1.315-.559.673-1.121,1.345l-.517.618c-.085.1-.18.2-.257.306-.043.061-.17.267-.058.107-.044.064-.225.214-.062.067,0,0-.333.113-.123.049a.266.266,0,0,1-.092,0,.254.254,0,0,1-.147-.053c.134.091-.151-.115-.139-.106-.147-.112-.291-.229-.436-.344q-1.2-.948-2.393-1.9c-1.682-1.343-3.359-2.693-5.072-4a2.012,2.012,0,0,0-2.736.718,2.05,2.05,0,0,0,.717,2.736Z"/><path class="c" d="M216.288,165.685c1.683,1.323,3.324,2.7,4.975,4.064,1.929,1.591,4.033,4.014,6.805,3.171,1.42-.432,2.259-1.6,3.185-2.676s1.931-2.15,2.776-3.307a4.183,4.183,0,0,0,.453-4.027,8.863,8.863,0,0,0-2.577-2.935c-2.061-1.873-4.149-3.716-6.233-5.563a2.048,2.048,0,0,0-2.829,0,2.021,2.021,0,0,0,0,2.829q2.249,1.99,4.491,3.99,1.257,1.127,2.5,2.266c.285.262.8.725.945.876-.111-.116.061.116.063.135-.036-.362-.018.112-.008.081,0-.009.02-.3-.028-.045-.057.3.119-.229-.015.05-.1.207-.006.018.012-.016.008-.014-.167.23-.094.153-.073.076-.284.334-.405.478q-.572.68-1.149,1.353-.6.7-1.2,1.388l-.552.639c-.091.1-.189.207-.274.317-.042.053-.2.257-.065.1-.107.127-.1.126-.259.11.332.032-.257.015.074,0-.046,0-.353-.123-.092-.013,0,0-.261-.18-.145-.081-.02-.018-.345-.283-.477-.391q-1.136-.927-2.265-1.862c-1.589-1.312-3.17-2.637-4.79-3.912a2.066,2.066,0,0,0-2.829,0,2.015,2.015,0,0,0,0,2.829Z"/><path class="c" d="M249.651,197.374c10.092-10.881,19.651-22.287,29.034-33.781q3.416-4.182,6.758-8.423a2.063,2.063,0,0,0,0-2.828,2.012,2.012,0,0,0-2.828,0c-9.024,11.5-18.472,22.7-28.125,33.682-2.523,2.87-5.069,5.72-7.668,8.521-1.749,1.885,1.073,4.721,2.829,2.829Z"/><path class="b" d="M229.435,124.465a22.193,22.193,0,0,0-2.22-2.8,16.823,16.823,0,0,0-3.38-3.01c-.664-.386-2.881-1.436-4.846-2.372-1.29-.615-2.471-1.181-3.034-1.478,0,0-.494-.261-1.24-.662-2.911,3.644-7.508,9.353-11.291,13.481.195.222.318.364.318.364.942,1.088,2.567,2.185,2.081,3.708a11.949,11.949,0,0,0-.253,5.533,29.635,29.635,0,0,0,1.452,6.2,14.174,14.174,0,0,0,1.693,3.825,3.013,3.013,0,0,0,3.507,1.171c1.583-.594,1.835-2.078,2.144-3.994.353.45.724.892,1.209,1.464a7.751,7.751,0,0,0,2.044,1.853,2.54,2.54,0,0,0,2.674-.047c.43-.33,1.513-1.322,1.924-1.7,1.44-1.52,5.268-5.658,6.878-7.738,1.42-2.09,3.45-4.77,3.53-7.22S230.725,126.375,229.435,124.465Z"/><path class="b" d="M96.751,113.719c3.007-8.968,6.417-20.037,9.243-29.727-1.622,1.031-4.8,2.911-7.012,3.991a16.368,16.368,0,0,1-12.74.54c-.02-.01-.05-.01-.07-.02l-.786-.393A102.043,102.043,0,0,0,93.974,121.7C94.834,119.341,95.771,116.641,96.751,113.719Z"/><path class="c" d="M202.328,129.4c.363.405.762.774,1.129,1.174a1.959,1.959,0,0,1,.36.436c.333.708.087.168.086.158a4.4,4.4,0,0,1-.246.869c-.08.355-.133.713-.18,1.074a11.019,11.019,0,0,0-.092,1.947,33.571,33.571,0,0,0,1.709,8.9c.846,2.618,1.958,5.712,4.922,6.49s5.334-1.294,6.011-4.031c.619-2.5-3.238-3.565-3.857-1.063-.141.57-.209,1.115-.758,1.227-.74.152-1.125-.533-1.428-1.081a24.344,24.344,0,0,1-2.212-6.952,23.97,23.97,0,0,1-.38-3.338,10.111,10.111,0,0,1,.359-2.985c.581-2.516-1.068-3.955-2.595-5.654-1.724-1.919-4.546.917-2.828,2.828Z"/><path class="c" d="M214.945,116.532c2.237,1.167,4.557,2.172,6.816,3.3,3.046,1.516,5.018,4.347,6.943,7.054.96,1.35,2.2,2.937,1.846,4.693-.365,1.8-1.634,3.429-2.653,4.91a64.411,64.411,0,0,1-6.134,7.08c-.431.462-.855.924-1.319,1.352q-.477.44-.967.867a2.261,2.261,0,0,1-.432.37c.2-.069.027-.043-.061-.049-.887-.07-1.616-1.178-2.136-1.791a29.9,29.9,0,0,1-1.9-2.484c-1.442-2.115-4.909-.116-3.454,2.018a20.279,20.279,0,0,0,4.622,5.3,4.75,4.75,0,0,0,6.192-.539,69.394,69.394,0,0,0,7.266-7.781c2.613-3.109,6-7.522,4.784-11.838-.632-2.243-2.188-4.127-3.512-6a24.536,24.536,0,0,0-4.993-5.368c-2.619-1.992-5.981-3.036-8.887-4.551-2.28-1.189-4.3,2.262-2.019,3.454Z"/><path class="c" d="M82.733,79.044a158.441,158.441,0,0,0,2.338,21.144,102.336,102.336,0,0,0,7.176,22.518c.769,1.722,3.131.96,3.655-.478,5.041-13.833,9.263-28,13.3-42.151.982-3.439,1.943-6.884,2.853-10.342.657-2.492-3.2-3.555-3.857-1.064-3.7,14.073-7.946,28.033-12.5,41.853-1.173,3.563-2.378,7.116-3.662,10.641l3.655-.478a98.116,98.116,0,0,1-6.772-21.562,150.327,150.327,0,0,1-2.195-20.081c-.14-2.56-4.141-2.577-4,0Z"/><path class="c" d="M68.6,87.612c1.654,1.672,2.867,3.711,4.52,5.383l.405-3.142a35.181,35.181,0,0,0-5.889,4.764,2.032,2.032,0,0,0-.313,2.424c4.107,6.385,8.139,12.819,12.206,19.23q1,1.578,2,3.157c1.377,2.166,4.84.162,3.453-2.019q-6.142-9.662-12.268-19.333c-.646-1.019-1.289-2.04-1.941-3.054l-.313,2.424a30.225,30.225,0,0,1,5.08-4.139,2.027,2.027,0,0,0,.405-3.141c-1.654-1.672-2.867-3.71-4.52-5.382-1.813-1.833-4.642.995-2.829,2.828Z"/><path class="c" d="M120.286,80.175c-1.669,1.819-3.3,3.673-5,5.461a2.014,2.014,0,0,0,0,2.829c2.189,1.7,4.121,3.7,6.248,5.479l-.313-2.424c-5.353,7.279-10.6,14.634-16.043,21.848a2.012,2.012,0,0,0,.717,2.736,2.049,2.049,0,0,0,2.737-.718c5.441-7.213,10.69-14.568,16.043-21.847a1.994,1.994,0,0,0-.313-2.423c-2.126-1.778-4.058-3.776-6.248-5.48v2.829c1.7-1.788,3.329-3.643,5-5.462,1.738-1.893-1.083-4.729-2.828-2.828Z"/><path class="c" d="M70.467,74.928a96.251,96.251,0,0,0-9.091,5.114A56.928,56.928,0,0,0,54.1,85.937c-5.386,4.988-10.21,10.593-15.925,15.222a2.012,2.012,0,0,0,0,2.828,2.047,2.047,0,0,0,2.828,0c5.6-4.533,10.33-10.011,15.591-14.911,1.183-1.1,2.376-2.194,3.606-3.242.421-.359.87-.721,1.045-.848.765-.559,1.548-1.1,2.341-1.615a97.8,97.8,0,0,1,8.9-4.989c2.29-1.178.269-4.631-2.019-3.454Z"/><path class="c" d="M40.7,112.136q-.09-13.05.608-26.072a2.023,2.023,0,0,0-2.532-1.928c-8.179,1.631-16.268,3.684-24.444,5.332A2.036,2.036,0,0,0,12.86,91.4c-.554,7.678-1,15.365-1.017,23.065-.009,3.506.107,7.006.217,10.51.109,3.487.372,7.036,1.83,10.255,2.424,5.348,8.939,7.424,14.451,7.053a25.2,25.2,0,0,0,9.555-3.062c2.907-1.467,5.784-3.076,8.571-4.762a171.25,171.25,0,0,0,20.417-14.838c1.983-1.645-.861-4.461-2.829-2.828a183.512,183.512,0,0,1-16.686,12.368c-2.622,1.714-5.341,3.24-8.074,4.768a37.838,37.838,0,0,1-8.8,3.983c-4.173,1.079-10.594.24-12.8-3.973-1.358-2.6-1.52-5.679-1.621-8.549-.116-3.339-.225-6.677-.231-10.018-.014-8,.442-15.993,1.018-23.972l-1.468,1.929c8.176-1.647,16.265-3.7,24.445-5.332l-2.532-1.929Q36.6,99.1,36.7,112.136c.017,2.573,4.017,2.578,4,0Z"/><path class="c" d="M144.821,107.244c7.944,1.348,16.027,2.734,23.706,5.224a30.449,30.449,0,0,1,8.144,4.427c3.5,2.439,6.9,5.012,10.286,7.605,3.688,2.824,7.338,5.7,11,8.546a2.081,2.081,0,0,0,2.829,0,72.684,72.684,0,0,0,8.679-9.321c2.751-3.275,5.419-6.618,8.09-9.959a2.027,2.027,0,0,0,0-2.828c-5.533-4.382-11.253-8.543-17.007-12.627-5.944-4.218-11.983-8.722-18.536-11.965a132.643,132.643,0,0,0-24.189-8.811c-4.79-1.3-9.582-2.721-14.457-3.66-4.98-.959-10-1.739-15.012-2.482q-2.335-.346-4.674-.675c-1.08-.151-2.244-.2-3.3-.459-1.038-.254-2.064-.7-3.076-1.039L109.4,66.55c-2.445-.826-3.494,3.036-1.064,3.857l6.677,2.255,3.724,1.257a23.564,23.564,0,0,0,4.265.71c5.2.734,10.405,1.519,15.584,2.423,4.857.848,9.571,2.049,14.335,3.312a161.181,161.181,0,0,1,24.3,8.167c6.587,2.922,12.528,7.087,18.42,11.2q5.749,4.011,11.381,8.19,2.29,1.695,4.562,3.416c1.3.988,1.944,1.477,3.151,2.433v-2.828c-2.671,3.34-5.339,6.684-8.091,9.959a72.613,72.613,0,0,1-8.679,9.321h2.829c-6.878-5.345-13.689-10.792-20.784-15.849A38.576,38.576,0,0,0,171.3,109.2a86.615,86.615,0,0,0-11.707-3.189c-4.544-1-9.121-1.849-13.708-2.627a2.059,2.059,0,0,0-2.46,1.4,2.016,2.016,0,0,0,1.4,2.46Z"/><path class="c" d="M85.641,90.432c4.022,1.149,8.053,1.6,12.1.212A45.515,45.515,0,0,0,107,85.72c2.169-1.373.165-4.835-2.019-3.454a44,44,0,0,1-7.978,4.4,14.138,14.138,0,0,1-5.1.882,19.49,19.49,0,0,1-5.2-.977c-2.48-.709-3.538,3.15-1.063,3.857Z"/><path class="c" d="M61.906,107.8a256.536,256.536,0,0,0,7.265,26.859V133.6q-3.276,10.185-6.556,20.369c-1.026,3.185-2.112,6.359-3,9.588a46.751,46.751,0,0,0-1.055,4.706,17.464,17.464,0,0,0-.486,4.882c.439,3.156,3.415,4.71,6.054,5.8a39.861,39.861,0,0,0,7.784,2.692c5.592,1.045,11.76-.645,16.47-3.739,5.071-3.331,8.428-8.95,10.941-14.358H95.873a48.615,48.615,0,0,0,6.494,10.053,45.828,45.828,0,0,0,7.831,7.951c5.594,4.168,13.648,6.777,20.6,5.067,3.556-.876,6.934-2.952,9.988-4.91a103.35,103.35,0,0,0,8.91-6.793c2.956-2.383,6.278-4.805,8.672-7.771a8.547,8.547,0,0,0,2.152-5.341,7.868,7.868,0,0,0-2.222-5.017c-1.377-1.581-3.1-2.852-4.6-4.309a69,69,0,0,1-4.767-5.13,71.819,71.819,0,0,1-7.936-11.54l.273,1.01c1.093-10.438,2.519-20.91,4.529-31.213.49-2.515-3.364-3.592-3.857-1.064-1.646,8.437-2.819,16.983-3.887,25.51-.257,2.049-.5,4.1-.72,6.152a4.767,4.767,0,0,0,1.019,3.058q.963,1.654,2.019,3.253a76.6,76.6,0,0,0,10.039,12.343c1.635,1.617,3.573,3,5.062,4.758,1.365,1.608,1.236,3.21-.049,4.851a38.15,38.15,0,0,1-5.541,5.14c-1.757,1.489-3.558,2.922-5.357,4.359a63.017,63.017,0,0,1-11.244,7.43,16.809,16.809,0,0,1-11.933,1.043,25.043,25.043,0,0,1-12.606-7.594,54.863,54.863,0,0,1-9.412-13.315,2.011,2.011,0,0,0-3.454,0c-2.582,5.557-5.933,11.239-11.551,14.108a20.272,20.272,0,0,1-9.382,2.338c-3.12-.064-6.057-1.367-8.9-2.532-1.292-.529-3.1-1.067-3.824-2.378a3.294,3.294,0,0,1-.029-1.97c.094-.973.249-1.937.437-2.9a102.166,102.166,0,0,1,3.312-11.5q1.907-5.921,3.813-11.843.954-2.961,1.906-5.921c.608-1.889,1.788-4.053,1.146-6.01a254.5,254.5,0,0,1-7.04-26.176c-.536-2.516-4.393-1.451-3.857,1.064Z"/><path class="c" d="M97.046,72.157c-6.56,3.226-14.4,4.966-21.318,1.745a19.027,19.027,0,0,1-7.965-6.454,26.529,26.529,0,0,1-3.691-9.895c-.911-4.856-1.314-9.811-2.093-14.691a2.014,2.014,0,0,0-2.46-1.4,2.048,2.048,0,0,0-1.4,2.46c.748,4.686,1.175,9.426,1.986,14.1a30.1,30.1,0,0,0,4.1,11.289C68.652,76.143,77,79.98,85.044,79.588a35.663,35.663,0,0,0,14.021-3.977c2.31-1.136.285-4.587-2.019-3.454Z"/><path class="c" d="M105.616,71.87a38.421,38.421,0,0,0,5.622-6.635,30.938,30.938,0,0,0,2.811-4.948,2.056,2.056,0,0,0-.718-2.737,2.022,2.022,0,0,0-2.736.718,30.664,30.664,0,0,1-2.708,4.8q-.514.771-1.065,1.518c-.111.151-.224.3-.337.45.169-.223-.018.024-.093.118q-.3.375-.6.741a35.307,35.307,0,0,1-3,3.151,2.017,2.017,0,0,0,0,2.829,2.044,2.044,0,0,0,2.829,0Z"/></svg>